<?xml version="1.0" encoding="utf-8"?>
<!-- Generator: Adobe Illustrator 23.0.2, SVG Export Plug-In . SVG Version: 6.00 Build 0)  -->
<svg version="1.1" id="icon" xmlns="http://www.w3.org/2000/svg" xmlns:xlink="http://www.w3.org/1999/xlink" x="0px" y="0px"
	 viewBox="0 0 16 16" style="enable-background:new 0 0 16 16;" xml:space="preserve" fill="#555">
<path d="M14.8,1h-2.2h0V0.5c0-0.3-0.2-0.5-0.5-0.5h-0.2c-0.3,0-0.5,0.2-0.5,0.5V1H8.6h0V0.5C8.6,0.2,8.4,0,8.1,0H7.9
	C7.6,0,7.4,0.2,7.4,0.5V1H4.6h0V0.5C4.6,0.2,4.3,0,4.1,0H3.9C3.6,0,3.4,0.2,3.4,0.5V1H1.1C0.8,1,0.5,1.3,0.5,1.7v13.7
	c0,0.3,0.3,0.6,0.6,0.6h13.7c0.3,0,0.6-0.3,0.6-0.6V1.7C15.5,1.3,15.2,1,14.8,1z M11,2.8c0.1-0.1,0.1-0.2,0.2-0.3
	c0.1-0.1,0.1-0.1,0.2-0.2v0.2v0.3v0.3c0,0.3,0.3,0.6,0.6,0.6c0.3,0,0.6-0.3,0.6-0.6V2.8V2.5V2.4l0-0.1c0.1,0,0.1,0.1,0.2,0.2
	C12.9,2.6,13,2.7,13,2.8c0.1,0.1,0.1,0.3,0.1,0.4c0,0.6-0.5,1.1-1.1,1.1c-0.6,0-1.1-0.5-1.1-1.1C11,3.1,11,3,11,2.8z M7,2.8
	c0.1-0.1,0.1-0.2,0.2-0.3c0.1-0.1,0.1-0.1,0.2-0.2v0.2v0.3v0.3c0,0.3,0.3,0.6,0.6,0.6c0.3,0,0.6-0.3,0.6-0.6V2.8V2.5V2.4l0-0.1
	c0.1,0,0.1,0.1,0.2,0.2C8.9,2.6,8.9,2.7,9,2.8C9,3,9.1,3.1,9.1,3.3c0,0.6-0.5,1.1-1.1,1.1S6.9,3.8,6.9,3.3C6.9,3.1,7,3,7,2.8z
	 M3,2.8C3,2.7,3.1,2.6,3.2,2.5c0.1-0.1,0.1-0.1,0.2-0.2v0.2v0.3v0.3c0,0.3,0.3,0.6,0.6,0.6s0.6-0.3,0.6-0.6V2.8V2.5V2.4l0-0.1
	c0.1,0,0.1,0.1,0.2,0.2C4.8,2.6,4.9,2.7,5,2.8C5,3,5,3.1,5,3.3C5,3.8,4.6,4.3,4,4.3c-0.6,0-1.1-0.5-1.1-1.1C2.9,3.1,2.9,3,3,2.8z
	 M13.7,14.2H2.3v-9h11.4V14.2z"/>
<rect x="4.1" y="6.8" width="1.3" height="1.3"/>
<polygon points="7.6,6.8 7.6,6.8 7.6,6.8 6.2,6.8 6.2,8.1 7.6,8.1 "/>
<polygon points="9.7,6.8 8.4,6.8 8.4,8.1 8.4,8.1 8.4,8.1 9.7,8.1 "/>
<polygon points="11.9,6.8 10.6,6.8 10.6,8.1 10.6,8.1 10.6,8.1 11.9,8.1 "/>
<rect x="4.1" y="8.9" width="1.3" height="1.3"/>
<polygon points="7.6,8.9 7.6,8.9 7.6,8.9 6.2,8.9 6.2,10.3 7.6,10.3 "/>
<polygon points="9.7,8.9 8.4,8.9 8.4,10.3 8.4,10.3 8.4,10.3 9.7,10.3 "/>
<polygon points="11.9,8.9 10.6,8.9 10.6,10.3 10.6,10.3 10.6,10.3 11.9,10.3 "/>
<polygon points="5.4,11.1 4.1,11.1 4.1,11.1 4.1,11.1 4.1,12.4 5.4,12.4 "/>
<polygon points="7.6,11.1 7.6,11.1 7.6,11.1 6.3,11.1 6.3,11.1 6.2,11.1 6.2,12.4 7.6,12.4 "/>
<polygon points="9.7,11.1 8.4,11.1 8.4,11.1 8.4,11.1 8.4,12.4 8.4,12.4 8.4,12.4 9.7,12.4 "/>
<polygon points="11.9,11.1 10.6,11.1 10.6,11.1 10.6,11.1 10.6,12.4 10.6,12.4 10.6,12.4 11.9,12.4 "/>
</svg>
