<?xml version="1.0" encoding="utf-8"?>
<!-- Generator: Adobe Illustrator 25.4.2, SVG Export Plug-In . SVG Version: 6.00 Build 0)  -->
<svg version="1.1" id="レイヤー_1" xmlns="http://www.w3.org/2000/svg" xmlns:xlink="http://www.w3.org/1999/xlink" x="0px"
	 y="0px" viewBox="0 0 80 80" style="enable-background:new 0 0 80 80;" xml:space="preserve">
<style type="text/css">
	.st0{fill:#FFFFFF;}
	.st1{fill:#E9546B;}
</style>
<path class="st0" d="M40.5,71.3c-6.5-4.2-35-23.8-35-44.5c0-8.4,4.7-17.5,15-17.5c8.4,0,17.5,5.7,17.5,15c0,1.4,1.1,2.5,2.5,2.5
	s2.5-1.1,2.5-2.5c0-9.3,9.1-15,17.5-15c10.3,0,15,9.1,15,17.5C75.5,47.5,47,67.1,40.5,71.3z"/>
<path class="st1" d="M60.5,4.2c-8.7,0-16.3,4.4-20,10.8c-3.7-6.4-11.3-10.8-20-10.8c-13.1,0-20,11.3-20,22.5
	c0,26.1,37.1,48.7,38.7,49.6c0.4,0.2,0.8,0.4,1.3,0.4c0.4,0,0.9-0.1,1.3-0.4c1.6-0.9,38.7-23.5,38.7-49.6
	C80.5,15.6,73.6,4.2,60.5,4.2z"/>
</svg>
